<svg width="512" height="512" viewBox="0 0 512 512" xmlns="http://www.w3.org/2000/svg">
  <!-- ホーム画面アイコン（icon-192.png / icon-512.png）のマスターSVG。
       PNGを再生成する場合はこのSVGを512px/192pxでラスタライズする。 -->
  <defs>
    <radialGradient id="bgr" cx="0.5" cy="0.3" r="1.0">
      <stop offset="0" stop-color="#4d357e"/>
      <stop offset="0.55" stop-color="#35245c"/>
      <stop offset="1" stop-color="#1d1136"/>
    </radialGradient>
    <linearGradient id="bolt" x1="0" y1="0" x2="0" y2="1">
      <stop offset="0" stop-color="#fde047"/><stop offset="0.5" stop-color="#f59e0b"/><stop offset="1" stop-color="#d97706"/>
    </linearGradient>
    <linearGradient id="edge" x1="0" y1="0" x2="1" y2="1">
      <stop offset="0" stop-color="#a855f7"/><stop offset="1" stop-color="#6d28d9"/>
    </linearGradient>
    <filter id="sh" x="-30%" y="-30%" width="160%" height="160%">
      <feDropShadow dx="0" dy="10" stdDeviation="18" flood-color="#7c3aed" flood-opacity="0.6"/>
    </filter>
  </defs>
  <rect width="512" height="512" fill="url(#bgr)"/>
  <!-- 領収書は稲妻の背面。ブランド他アイコン（副モチーフは右下）に合わせ、
       鏡写し（左右反転）で右傾きにし、右下へ寄せる。
       transformは右から順に適用: 傾き(-23.4°) → 左右反転(x=256軸) → 右下へ平行移動(40,52)。
       反転により見た目の傾きは+23.4°（右傾き）になり、内部の明細行も右揃えになる -->
  <g transform="translate(40 52) translate(512 0) scale(-1 1) rotate(-23.4 256 256)">
    <path d="M136 30 h240 a14 14 0 0 1 14 14 v416 l-30 -22 -30 22 -30 -22 -30 22 -30 -22 -30 22 -30 -22 -30 22 v-416 a14 14 0 0 1 14 -14 Z" fill="#f2f2f0"/>
    <rect x="166" y="86" width="180" height="17" rx="8" fill="#9aa0a8"/>
    <rect x="166" y="130" width="130" height="17" rx="8" fill="#c2c6cc"/>
    <rect x="166" y="174" width="154" height="17" rx="8" fill="#c2c6cc"/>
    <rect x="166" y="218" width="110" height="17" rx="8" fill="#c2c6cc"/>
    <rect x="166" y="286" width="180" height="22" rx="11" fill="#6f7680"/>
  </g>
  <g transform="translate(48 56) scale(0.78)" filter="url(#sh)">
    <path d="M296 36 L138 296 L238 296 L198 476 L396 208 L286 208 L352 36 Z" fill="none" stroke="#f5f2fa" stroke-width="72" stroke-linejoin="round"/>
    <path d="M296 36 L138 296 L238 296 L198 476 L396 208 L286 208 L352 36 Z" fill="url(#bolt)" stroke="url(#edge)" stroke-width="40" stroke-linejoin="round"/>
  </g>
</svg>
